<?xml version="1.0" standalone="no"?>
<!DOCTYPE svg PUBLIC "-//W3C//DTD SVG 20010904//EN"
 "http://www.w3.org/TR/2001/REC-SVG-20010904/DTD/svg10.dtd">
<svg version="1.0" xmlns="http://www.w3.org/2000/svg"
 width="297.000000pt" height="292.000000pt" viewBox="0 0 297.000000 292.000000"
 preserveAspectRatio="xMidYMid meet">

<g transform="translate(0.000000,292.000000) scale(0.100000,-0.100000)"
fill="#000000" stroke="none">
<path d="M750 2734 c-232 -49 -426 -246 -475 -479 -22 -103 -22 -1407 0 -1510
49 -236 244 -431 480 -480 103 -22 1407 -22 1510 0 236 49 431 244 480 480 22
103 22 1407 0 1510 -49 236 -244 431 -480 480 -100 21 -1417 21 -1515 -1z
m355 -584 c0 -16 -6 -26 -18 -28 -19 -4 -32 20 -23 44 9 25 41 13 41 -16z
m863 -8 c3 -18 -1 -22 -21 -22 -28 0 -41 22 -24 39 17 17 42 9 45 -17z m-1021
-18 c6 -17 -6 -45 -23 -51 -21 -7 -47 23 -40 45 9 27 53 30 63 6z m1204 -20
c17 -21 0 -49 -32 -49 -27 0 -37 28 -19 50 16 19 34 19 51 -1z m-296 -49 c0
-23 -5 -31 -21 -33 -30 -4 -48 21 -34 48 18 33 55 23 55 -15z m-627 -1 c6 -40
-48 -56 -62 -18 -10 26 5 45 33 42 17 -2 27 -10 29 -24z m-153 -44 c41 -46
-29 -116 -75 -75 -24 22 -26 52 -3 77 21 24 55 23 78 -2z m955 -10 c24 -24 25
-38 4 -68 -30 -44 -94 -18 -94 38 0 48 54 66 90 30z m-672 -26 c26 -18 30 -65
7 -84 -34 -28 -95 -4 -95 37 0 15 44 63 57 63 5 0 19 -7 31 -16z m378 -9 c32
-50 -22 -103 -72 -70 -26 17 -33 62 -12 83 21 21 66 14 84 -13z m-857 -24 c13
-23 -10 -47 -34 -37 -18 7 -20 42 -2 49 21 9 26 7 36 -12z m1311 -28 c0 -20
-4 -24 -22 -21 -25 3 -37 36 -17 48 20 13 39 0 39 -27z m-966 -34 c19 -15 26
-30 26 -54 0 -36 -36 -75 -70 -75 -10 0 -29 9 -44 21 -34 27 -35 71 -1 104 30
30 54 31 89 4z m666 -11 c43 -46 12 -118 -52 -118 -42 0 -68 25 -68 67 0 65
76 98 120 51z m-336 -29 c51 -40 22 -123 -43 -121 -44 1 -71 27 -71 68 0 38
32 74 66 74 12 0 33 -9 48 -21z m-579 -24 c0 -25 -4 -30 -24 -30 -32 0 -49 28
-31 50 7 9 23 15 34 13 16 -2 21 -10 21 -33z m1115 10 c20 -25 8 -50 -25 -50
-21 0 -31 5 -33 18 -4 21 14 47 33 47 7 0 18 -7 25 -15z m-371 -80 c79 -40 50
-157 -42 -172 -31 -5 -40 -1 -67 25 -79 80 9 199 109 147z m-324 -19 c49 -49
40 -122 -17 -152 -39 -20 -81 -10 -113 28 -34 40 -33 82 4 119 38 38 91 40
126 5z m-290 -20 c34 -51 -30 -111 -75 -71 -22 20 -26 65 -8 83 21 21 66 14
83 -12z m875 4 c53 -53 -16 -124 -72 -73 -22 20 -23 51 -1 75 21 24 48 23 73
-2z m-426 -124 c62 -26 84 -92 51 -155 -13 -26 -67 -61 -95 -61 -28 0 -82 35
-95 61 -30 58 -8 130 48 154 41 18 50 18 91 1z m312 -63 c21 -27 17 -61 -11
-88 -42 -43 -106 -23 -121 37 -5 22 0 33 24 57 26 27 33 29 62 21 18 -5 38
-17 46 -27z m-624 10 c24 -22 24 -77 -2 -103 -42 -42 -120 -8 -120 52 0 58 78
91 122 51z m142 -139 c35 -35 35 -82 0 -123 -44 -53 -123 -40 -150 25 -12 29
-12 39 0 68 17 41 39 55 87 56 26 0 44 -7 63 -26z m326 -9 c59 -30 68 -98 21
-146 -40 -39 -87 -40 -124 -1 -44 46 -34 116 21 146 35 19 46 19 82 1z m-619
-25 c22 -12 27 -68 7 -88 -17 -17 -63 -15 -78 3 -18 22 -15 66 6 82 22 16 39
16 65 3z m894 -20 c41 -46 -29 -116 -75 -75 -24 22 -26 58 -4 79 21 22 57 20
79 -4z m-443 -122 c40 -61 -8 -131 -78 -114 -58 15 -69 102 -16 130 28 15 79
6 94 -16z m-309 -10 c24 -28 21 -65 -8 -93 -38 -39 -93 -28 -114 22 -32 79 67
136 122 71z m656 -4 c12 -15 21 -34 21 -44 0 -34 -39 -70 -75 -70 -38 0 -75
37 -75 74 0 62 90 89 129 40z m-919 1 c20 -24 3 -57 -28 -53 -30 3 -41 30 -22
53 16 19 34 19 50 0z m1119 -12 c12 -23 -4 -53 -29 -53 -25 0 -41 29 -29 52
12 23 45 23 58 1z m-723 -112 c26 -52 -34 -104 -76 -66 -22 20 -27 64 -8 83
21 21 71 10 84 -17z m-497 5 c15 -18 3 -46 -20 -46 -25 0 -35 26 -19 45 15 19
24 19 39 1z m853 -3 c25 -22 23 -59 -4 -77 -29 -20 -47 -20 -70 1 -24 21 -23
48 2 73 24 24 47 25 72 3z m457 -7 c15 -18 3 -46 -20 -46 -25 0 -35 26 -19 45
15 19 24 19 39 1z m-1117 -23 c41 -37 3 -106 -50 -87 -37 13 -52 57 -27 84 22
24 52 26 77 3z m958 -3 c24 -24 25 -47 3 -72 -18 -20 -63 -24 -81 -6 -20 20
-14 65 10 82 30 21 44 20 68 -4z m-802 -106 c6 -40 -48 -56 -62 -18 -10 26 5
45 33 42 17 -2 27 -10 29 -24z m630 -15 c3 -28 -16 -43 -42 -33 -38 14 -22 68
18 62 14 -2 22 -12 24 -29z m286 -15 c27 -26 12 -58 -25 -52 -27 3 -37 32 -19
53 16 19 25 19 44 -1z m-1196 -20 c2 -11 -4 -26 -12 -33 -31 -26 -71 14 -45
45 17 21 53 14 57 -12z m160 -50 c4 -27 -26 -40 -46 -20 -13 13 -13 18 -2 31
18 21 44 15 48 -11z m857 -9 c0 -22 -31 -33 -47 -17 -17 17 -1 44 24 40 15 -2
23 -10 23 -23z"/>
</g>
</svg>
